<?xml version='1.0' encoding='iso-8859-1'?>
<!-- Uploaded to: SVG Repo, www.svgrepo.com, Generator: SVG Repo Mixer Tools -->
<svg fill="#000000" height="800px" width="800px" version="1.1" xmlns="http://www.w3.org/2000/svg" viewBox="0 0 246.485 246.485" xmlns:xlink="http://www.w3.org/1999/xlink" enable-background="new 0 0 246.485 246.485">
  <g>
    <path d="m71.862,122.429c-39.625,0-71.862,23.414-71.862,52.194 0,28.78 32.237,52.194 71.862,52.194s71.862-23.414 71.862-52.194c0.001-28.78-32.237-52.194-71.862-52.194zm-44.938,70.753c-10.25,0-18.559-8.309-18.559-18.559 0-10.25 8.309-18.559 18.559-18.559 10.25,0 18.559,8.309 18.559,18.559-7.10543e-15,10.25-8.31,18.559-18.559,18.559z"/>
    <path d="m174.623,19.668c-39.625,0-71.862,23.414-71.862,52.194 0,28.779 32.237,52.193 71.862,52.193s71.862-23.414 71.862-52.193c2.84217e-14-28.779-32.237-52.194-71.862-52.194zm-44.939,70.753c-10.25-1.42109e-14-18.559-8.309-18.559-18.559 0-10.25 8.309-18.559 18.559-18.559s18.559,8.309 18.559,18.559c0,10.25-8.309,18.559-18.559,18.559z"/>
  </g>
</svg>