<?xml version="1.0" encoding="UTF-8"?>
<svg width="800" height="800" viewBox="0 0 64 64" id="Layer_1" xmlns="http://www.w3.org/2000/svg">

  <!-- Kahverengi dallar -->
  <path d="M25,25a1,1,0,0,1-1-1V19.4468A6.4542,6.4542,0,0,0,17.5532,13H13a1,1,0,0,1,0-2h4.5532A8.4562,8.4562,0,0,1,26,19.4468V24A1,1,0,0,1,25,25Z" fill="#6d4d42"/>
  <path d="M52,36a1,1,0,0,1-1-1V26.51a3.4849,3.4849,0,0,0-3.4814-3.481H45a1,1,0,0,1,0-2h2.5186A5.4876,5.4876,0,0,1,53,26.51V35A1,1,0,0,1,52,36Z" fill="#6d4d42"/>

  <!-- Mor gövde parçaları -->
  <path d="M60,43.5A8.5057,8.5057,0,0,1,51.5,52c-.17,0-.33,0-.5-.01a8.505,8.505,0,0,1,0-16.98c.17-.01.33-.01.5-.01A8.5057,8.5057,0,0,1,60,43.5Z" fill="#ab6cad"/>
  <path d="M60,43.5A8.5057,8.5057,0,0,1,51.5,52c-.17,0-.33,0-.5-.01V35.01c.17-.01.33-.01.5-.01A8.5057,8.5057,0,0,1,60,43.5Z" fill="#9b51a0"/>

  <path d="M24.98,25.09a12.0259,12.0259,0,0,0-3.9,7.56A8.3011,8.3011,0,0,1,17,33.98a4.18,4.18,0,0,1-.5.02,8.5,8.5,0,0,1,0-17,4.18,4.18,0,0,1,.5.02A8.4842,8.4842,0,0,1,24.98,25.09Z" fill="#863b96"/>
  <path d="M24.98,25.09a12.0259,12.0259,0,0,0-3.9,7.56A8.3011,8.3011,0,0,1,17,33.98V17.02A8.4842,8.4842,0,0,1,24.98,25.09Z" fill="#783293"/>

  <path d="M44.31,48.02a6.9963,6.9963,0,0,1-13.26-2.19A12.6189,12.6189,0,0,0,33,46a11.7646,11.7646,0,0,0,5-1.1,12.0256,12.0256,0,0,0,5.19-4.59c.1.12.21.24.3.36A8.585,8.585,0,0,0,43,43.5,8.4172,8.4172,0,0,0,44.31,48.02Z" fill="#863b96"/>
  <path d="M44.31,48.02A7.0055,7.0055,0,0,1,38,52V44.9a12.0256,12.0256,0,0,0,5.19-4.59c.1.12.21.24.3.36A8.585,8.585,0,0,0,43,43.5,8.4172,8.4172,0,0,0,44.31,48.02Z" fill="#783293"/>

  <path d="M45,34a11.9942,11.9942,0,0,1-23.7,2.62A6.277,6.277,0,0,0,27.29,41H29V39.29A6.2822,6.2822,0,0,0,22.71,33H21.06a12,12,0,0,1,5.31-9h1.56A9.0114,9.0114,0,0,0,33,22.45a5.98,5.98,0,0,0,.57-.42A11.96,11.96,0,0,1,43,27.38V28.5a6.4556,6.4556,0,0,0,1.96,4.64C44.98,33.43,45,33.71,45,34Z" fill="#692c90"/>
  <path d="M45,34A11.9967,11.9967,0,0,1,33,46V22.45a5.98,5.98,0,0,0,.57-.42A11.96,11.96,0,0,1,43,27.38V28.5a6.4556,6.4556,0,0,0,1.96,4.64C44.98,33.43,45,33.71,45,34Z" fill="#4b2d87"/>

  <path d="M25.7,43.51A10.9941,10.9941,0,1,1,10.15,31.14,8.5029,8.5029,0,0,0,15,33.87a9.2946,9.2946,0,0,0,1.5.13,8.431,8.431,0,0,0,4.58-1.35c-.01.12-.01.23-.02.35H21v1.71a6.3764,6.3764,0,0,0,.3,1.92A12.0154,12.0154,0,0,0,25.7,43.51Z" fill="#ab6cad"/>
  <path d="M25.7,43.51A11.0015,11.0015,0,0,1,15,52V33.87a9.2946,9.2946,0,0,0,1.5.13,8.431,8.431,0,0,0,4.58-1.35c-.01.12-.01.23-.02.35H21v1.71a6.3764,6.3764,0,0,0,.3,1.92A12.0154,12.0154,0,0,0,25.7,43.51Z" fill="#9b51a0"/>

  <!-- Yeşil yapraklar -->
  <path d="M37,12v2.93A9.069,9.069,0,0,1,27.93,24H25V21.07A9.069,9.069,0,0,1,34.07,12Z" fill="#378e43"/>
  <path d="M37,12v2.93A9.069,9.069,0,0,1,27.93,24H25Z" fill="#42a047"/>
  <path d="M60,27v1.59A6.41,6.41,0,0,1,53.59,35H52V33.41A6.41,6.41,0,0,1,58.41,27Z" fill="#378e43"/>
  <path d="M60,27v1.59A6.41,6.41,0,0,1,53.59,35H52Z" fill="#42a047"/>
  <path d="M52,32.5V35H49.5A6.5,6.5,0,0,1,43,28.5V26h2.5A6.5,6.5,0,0,1,52,32.5Z" fill="#378e43"/>
  <path d="M52,35H49.5A6.5,6.5,0,0,1,43,28.5V26Z" fill="#42a047"/>
  <path d="M29,39.29V41H27.29A6.2822,6.2822,0,0,1,21,34.71V33h1.71A6.2822,6.2822,0,0,1,29,39.29Z" fill="#42a047"/>
  <path d="M29,39.29V41l-8-8h1.71A6.2822,6.2822,0,0,1,29,39.29Z" fill="#378e43"/>
  <path d="M58,12v1.17A8.8257,8.8257,0,0,1,49.17,22H48V20.83A8.8257,8.8257,0,0,1,56.83,12Z" fill="#378e43"/>
  <path d="M58,12v1.17A8.8257,8.8257,0,0,1,49.17,22H48Z" fill="#42a047"/>
  <path d="M45,20.48V22H43.48A2.48,2.48,0,0,1,41,19.52V18h1.52A2.48,2.48,0,0,1,45,20.48Z" fill="#378e43"/>
  <path d="M45,22H43.48A2.48,2.48,0,0,1,41,19.52V18Z" fill="#42a047"/>

  <!-- Siyah artılar -->
  <path d="M40,36H39V35a1,1,0,0,0-2,0v1H36a1,1,0,0,0,0,2h1v1a1,1,0,0,0,2,0V38h1a1,1,0,0,0,0-2Z" fill="#263238"/>
  <path d="M12,43H11V42a1,1,0,0,0-2,0v1H8a1,1,0,0,0,0,2H9v1a1,1,0,0,0,2,0V45h1a1,1,0,0,0,0-2Z" fill="#263238"/>
  <path d="M17,22H16V21a1,1,0,0,0-2,0v1H13a1,1,0,0,0,0,2h1v1a1,1,0,0,0,2,0V24h1a1,1,0,0,0,0-2Z" fill="#263238"/>
  <path d="M56,44H55V43a1,1,0,0,0-2,0v1H52a1,1,0,0,0,0,2h1v1a1,1,0,0,0,2,0V46h1a1,1,0,0,0,0-2Z" fill="#263238"/>

</svg>
