<?xml version="1.0" encoding="iso-8859-1"?>
<!-- Uploaded to: SVG Repo, www.svgrepo.com, Generator: SVG Repo Mixer Tools -->
<svg height="800px" width="800px" version="1.1" id="Layer_1" xmlns="http://www.w3.org/2000/svg" xmlns:xlink="http://www.w3.org/1999/xlink" 
	 viewBox="0 0 511.988 511.988" xml:space="preserve">
<path style="fill:#CCD1D9;" d="M479.988,212.928h-21.327v192.815l0,0c0,2.719,1.031,5.469,3.125,7.531
	c4.155,4.188,10.921,4.188,15.077,0c2.094-2.062,3.125-4.812,3.125-7.531l0,0V212.928z"/>
<g>
	<path style="fill:#E6E9ED;" d="M511.988,172.383c0,35.358-19.109,51.202-42.672,51.202c-23.562,0-42.67-15.844-42.67-51.202
		c0-35.343,19.108-76.795,42.67-76.795C492.879,95.587,511.988,137.039,511.988,172.383z"/>
	<path style="fill:#E6E9ED;" d="M405.318,256.005c0,111.927-90.732,202.644-202.651,202.644C90.732,458.65,0,367.932,0,256.006
		C0,144.071,90.732,53.339,202.667,53.339C314.586,53.338,405.318,144.07,405.318,256.005z"/>
</g>
<g>
	<path style="fill:#CCD1D9;" d="M202.667,458.648c3.562,0,7.125-0.094,10.641-0.25c-0.141-5.781-4.844-10.406-10.641-10.406
		s-10.516,4.625-10.656,10.406C195.542,458.556,199.089,458.648,202.667,458.648z"/>
	<path style="fill:#CCD1D9;" d="M202.667,53.338c-3.578,0-7.125,0.094-10.656,0.281c0.141,5.766,4.859,10.391,10.656,10.391
		s10.5-4.625,10.641-10.391C209.792,53.431,206.229,53.338,202.667,53.338z"/>
	<path style="fill:#CCD1D9;" d="M280.213,443.242c3.312-1.375,6.546-2.812,9.733-4.344c-2.328-5.25-8.452-7.75-13.812-5.531
		c-5.36,2.219-7.938,8.312-5.859,13.688C273.603,445.867,276.916,444.617,280.213,443.242z"/>
	<path style="fill:#CCD1D9;" d="M125.106,68.759c-3.297,1.375-6.547,2.812-9.734,4.344c2.344,5.265,8.469,7.734,13.812,5.515
		c5.359-2.219,7.938-8.296,5.875-13.671C131.731,66.134,128.403,67.4,125.106,68.759z"/>
	<path style="fill:#CCD1D9;" d="M345.961,399.306c2.531-2.531,4.969-5.094,7.344-7.719c-4.188-3.969-10.781-3.938-14.875,0.188
		c-4.109,4.094-4.156,10.687-0.188,14.874C340.867,404.275,343.445,401.839,345.961,399.306z"/>
	<path style="fill:#CCD1D9;" d="M59.358,112.696c-2.531,2.531-4.969,5.109-7.328,7.734c4.172,3.969,10.765,3.906,14.874-0.188
		c4.094-4.109,4.156-10.703,0.188-14.875C64.467,107.727,61.889,110.164,59.358,112.696z"/>
	<path style="fill:#CCD1D9;" d="M389.896,333.557c1.375-3.312,2.641-6.625,3.828-9.938c-5.391-2.094-11.468,0.5-13.687,5.844
		c-2.219,5.375,0.266,11.5,5.53,13.844C387.084,340.09,388.537,336.871,389.896,333.557z"/>
	<path style="fill:#CCD1D9;" d="M15.422,178.444c-1.359,3.297-2.641,6.625-3.812,9.953c5.375,2.062,11.452-0.516,13.671-5.875
		c2.219-5.344-0.25-11.469-5.515-13.812C18.234,171.897,16.797,175.147,15.422,178.444z"/>
	<path style="fill:#CCD1D9;" d="M405.318,256.005c0-3.578-0.094-7.125-0.266-10.656c-5.766,0.156-10.391,4.859-10.391,10.656
		s4.625,10.499,10.391,10.655C405.224,263.13,405.318,259.568,405.318,256.005z"/>
	<path style="fill:#CCD1D9;" d="M0,256.005c0,3.578,0.094,7.125,0.281,10.655c5.75-0.156,10.391-4.858,10.391-10.655
		s-4.625-10.5-10.391-10.656C0.094,248.88,0,252.427,0,256.005z"/>
	<path style="fill:#CCD1D9;" d="M389.896,178.444c-1.359-3.297-2.812-6.547-4.328-9.734c-5.265,2.344-7.749,8.469-5.53,13.812
		c2.219,5.359,8.296,7.937,13.687,5.875C392.537,185.069,391.271,181.741,389.896,178.444z"/>
	<path style="fill:#CCD1D9;" d="M15.422,333.557c1.375,3.312,2.812,6.531,4.344,9.75c5.265-2.344,7.733-8.469,5.515-13.844
		c-2.219-5.344-8.296-7.906-13.671-5.844C12.781,326.932,14.062,330.246,15.422,333.557z"/>
	<path style="fill:#CCD1D9;" d="M345.961,112.696c-2.516-2.531-5.094-4.969-7.719-7.328c-3.969,4.172-3.922,10.781,0.188,14.875
		c4.094,4.094,10.688,4.156,14.875,0.188C350.945,117.805,348.492,115.226,345.961,112.696z"/>
	<path style="fill:#CCD1D9;" d="M59.358,399.306c2.53,2.531,5.108,4.968,7.733,7.343c3.969-4.188,3.906-10.78-0.188-14.874
		c-4.109-4.125-10.702-4.156-14.874-0.188C54.39,394.214,56.827,396.776,59.358,399.306z"/>
	<path style="fill:#CCD1D9;" d="M280.213,68.759c-3.297-1.359-6.609-2.625-9.938-3.812c-2.078,5.375,0.5,11.453,5.859,13.671
		s11.483-0.25,13.827-5.515C286.759,71.587,283.524,70.134,280.213,68.759z"/>
	<path style="fill:#CCD1D9;" d="M125.106,443.242c3.297,1.375,6.625,2.625,9.953,3.812c2.062-5.375-0.516-11.469-5.875-13.656
		c-5.344-2.25-11.469,0.25-13.812,5.5C118.559,440.431,121.809,441.867,125.106,443.242z"/>
</g>
<path style="fill:#ED5564;" d="M341.32,256.005c0,76.584-62.076,138.677-138.653,138.677c-76.592,0-138.669-62.093-138.669-138.677
	c0-76.592,62.077-138.669,138.669-138.669C279.244,117.336,341.32,179.413,341.32,256.005z"/>
<g style="opacity:0.2;">
	<path style="fill:#FFFFFF;" d="M202.667,117.336c-3.594,0-7.156,0.141-10.672,0.406c71.593,5.453,127.997,65.265,127.997,138.263
		c0,72.99-56.404,132.802-127.997,138.271c3.516,0.25,7.078,0.406,10.672,0.406c76.577,0,138.653-62.093,138.653-138.677
		C341.32,179.413,279.244,117.336,202.667,117.336z"/>
</g>
<g>
	<path style="fill:#FFCE54;" d="M245.322,309.34c0,17.655-14.328,31.999-31.999,31.999c-17.672,0-31.999-14.344-31.999-31.999
		c0-17.688,14.327-32,31.999-32C230.994,277.34,245.322,291.652,245.322,309.34z"/>
	<circle style="fill:#FFCE54;" cx="170.664" cy="224.003" r="31.999"/>
</g>
<g style="opacity:0.2;">
	<path style="fill:#FFFFFF;" d="M170.668,192.007c-1.828,0-3.609,0.156-5.344,0.453c15.141,2.531,26.671,15.687,26.671,31.546
		c0,15.858-11.53,28.999-26.671,31.546c1.734,0.297,3.516,0.453,5.344,0.453c17.671,0,31.999-14.328,31.999-31.999
		C202.667,206.335,188.339,192.007,170.668,192.007z"/>
</g>
<g style="opacity:0.2;">
	<path style="fill:#FFFFFF;" d="M213.323,277.34c-1.812,0-3.594,0.156-5.328,0.438c15.14,2.562,26.671,15.688,26.671,31.562
		c0,15.843-11.531,28.999-26.671,31.53c1.734,0.312,3.516,0.469,5.328,0.469c17.671,0,31.999-14.344,31.999-31.999
		C245.322,291.652,230.994,277.34,213.323,277.34z"/>
</g>
<path style="fill:#A0D468;" d="M287.993,224.007c0,5.89-4.781,10.656-10.671,10.656c-5.891,0-10.656-4.766-10.656-10.656
	c0-5.891,4.766-10.672,10.656-10.672C283.212,213.335,287.993,218.115,287.993,224.007z"/>
<g>
	<path style="fill:#FC6E51;" d="M234.666,181.335c0,5.89-4.781,10.671-10.672,10.671c-5.89,0-10.671-4.781-10.671-10.671
		c0-5.891,4.781-10.672,10.671-10.672C229.885,170.663,234.666,175.444,234.666,181.335z"/>
	<path style="fill:#FC6E51;" d="M287.993,287.996c0,5.906-4.781,10.656-10.671,10.656c-5.891,0-10.656-4.75-10.656-10.656
		c0-5.875,4.766-10.656,10.656-10.656C283.212,277.34,287.993,282.121,287.993,287.996z"/>
</g>
<g>
	<path style="fill:#A0D468;" d="M245.322,245.333c0,5.891-4.766,10.672-10.656,10.672s-10.672-4.782-10.672-10.672
		c0-5.89,4.781-10.671,10.672-10.671S245.322,239.443,245.322,245.333z"/>
	<path style="fill:#A0D468;" d="M138.669,277.34c0,5.875-4.781,10.656-10.672,10.656s-10.672-4.781-10.672-10.656
		c0-5.898,4.781-10.68,10.672-10.68C133.888,266.66,138.669,271.441,138.669,277.34z"/>
</g>
<path style="fill:#FC6E51;" d="M159.996,330.651c0,5.906-4.781,10.688-10.672,10.688s-10.655-4.781-10.655-10.688
	c0-5.875,4.765-10.656,10.655-10.656S159.996,324.776,159.996,330.651z"/>
</svg>