<?xml version="1.0" encoding="UTF-8" standalone="no"?>
<!-- Created with Inkscape (http://www.inkscape.org/) -->

<svg
   width="47.897713mm"
   height="46.764221mm"
   viewBox="0 0 47.897713 46.764221"
   version="1.1"
   id="svg1"
   xml:space="preserve"
   xmlns:inkscape="http://www.inkscape.org/namespaces/inkscape"
   xmlns:sodipodi="http://sodipodi.sourceforge.net/DTD/sodipodi-0.dtd"
   xmlns="http://www.w3.org/2000/svg"
   xmlns:svg="http://www.w3.org/2000/svg"><sodipodi:namedview
     id="namedview1"
     pagecolor="#ffffff"
     bordercolor="#cccccc"
     borderopacity="1"
     inkscape:showpageshadow="0"
     inkscape:pageopacity="1"
     inkscape:pagecheckerboard="0"
     inkscape:deskcolor="#d1d1d1"
     inkscape:document-units="mm"><inkscape:page
       x="0"
       y="0"
       width="47.897713"
       height="46.764221"
       id="page2"
       margin="0"
       bleed="0" /></sodipodi:namedview><defs
     id="defs1" /><g
     inkscape:label="Layer 1"
     inkscape:groupmode="layer"
     id="layer1"
     transform="translate(-78.208864,-67.345182)"><g
       id="g1"
       transform="matrix(0.5378564,0,0,0.5378564,1592.4412,196.13192)"
       style="fill:#d35f8d;fill-opacity:1;stroke:#ffffff;stroke-width:2.12717;stroke-dasharray:none;stroke-opacity:1"
       inkscape:export-filename="g1baby.svg"
       inkscape:export-xdpi="96"
       inkscape:export-ydpi="96"><path
         style="baseline-shift:baseline;display:inline;overflow:visible;opacity:1;fill:#d35f8d;fill-opacity:1;stroke:#d35f8d;stroke-width:2.12717;stroke-linecap:round;stroke-linejoin:round;stroke-miterlimit:5;stroke-dasharray:none;stroke-opacity:1;enable-background:accumulate;stop-color:#000000;stop-opacity:1"
         d="m -2771.0918,-238.38086 c -19.7419,3e-5 -36.0006,16.54475 -38.0664,37.92774 -1.5598,0.20713 -2.8673,1.19973 -3.6856,2.57031 -0.9081,1.52114 -1.4023,3.46275 -1.4023,5.58594 0,2.12317 0.4942,4.06479 1.4023,5.58593 0.9082,1.52114 2.3621,2.72656 4.1641,2.72657 0.288,3e-5 0.5583,-0.0964 0.8359,-0.15821 4.7356,17.94825 19.583,30.57998 36.752,30.58008 17.247,9e-5 32.1168,-12.74579 36.791,-30.77539 0.4554,0.17534 0.9137,0.3534 1.4121,0.35352 1.8021,-10e-6 3.2559,-1.20543 4.1641,-2.72657 0.9081,-1.52114 1.4043,-3.46276 1.4043,-5.58593 0,-2.12319 -0.4962,-4.0648 -1.4043,-5.58594 -0.9082,-1.52114 -2.362,-2.72656 -4.1641,-2.72656 -0.059,-10e-6 -0.1088,0.0461 -0.1679,0.0488 -2.1108,-21.31159 -18.316,-37.82041 -38.0352,-37.82031 z m 0,3 c 18.558,-9e-5 34.0553,15.9877 35.3047,36.7793 a 1.50015,1.50015 0 0 0 2.2832,1.1875 c 0.2416,-0.14853 0.4325,-0.19533 0.6152,-0.19531 0.4442,0 1.0241,0.3192 1.5879,1.26367 0.5639,0.94447 0.9805,2.40962 0.9805,4.04883 0,1.6392 -0.4166,3.10436 -0.9805,4.04882 -0.5632,0.94339 -1.1419,1.26294 -1.5859,1.26368 -0.312,-8e-5 -0.6972,-0.14242 -1.1602,-0.66993 a 1.50015,1.50015 0 0 0 -2.5957,0.68164 c -3.7697,17.89602 -18.0758,30.41025 -34.4492,30.41016 -16.2098,-1e-4 -30.4141,-12.27 -34.3437,-29.93359 a 1.50015,1.50015 0 0 0 -2.4122,-0.83789 c -0.335,0.27295 -0.5963,0.34964 -0.832,0.34961 -0.4442,-10e-6 -1.024,-0.31921 -1.5879,-1.26368 -0.5638,-0.94446 -0.9785,-2.40962 -0.9785,-4.04882 0,-1.63921 0.4147,-3.10436 0.9785,-4.04883 0.5639,-0.94447 1.1437,-1.26367 1.5879,-1.26367 0.1033,-6e-5 0.207,0.0171 0.3242,0.0566 a 1.50015,1.50015 0 0 0 1.9765,-1.32227 c 1.3723,-20.67567 16.8217,-36.50583 35.2852,-36.50586 z"
         id="path91" /><path
         id="path71"
         style="fill:#d35f8d;fill-opacity:1;stroke:#d35f8d;stroke-width:2.12717;stroke-linecap:round;stroke-linejoin:round;stroke-miterlimit:5;stroke-dasharray:none;stroke-opacity:1"
         d="m -2783.3154,-190.64563 a 3.8637564,4.8296952 0 0 1 -3.8638,4.8297 3.8637564,4.8296952 0 0 1 -3.8638,-4.8297 3.8637564,4.8296952 0 0 1 3.8638,-4.8297 3.8637564,4.8296952 0 0 1 3.8638,4.8297 z" /><path
         style="baseline-shift:baseline;display:inline;overflow:visible;fill:#d35f8d;fill-opacity:1;stroke:#d35f8d;stroke-width:2.12717;stroke-linecap:round;stroke-linejoin:round;stroke-miterlimit:5;stroke-dasharray:none;stroke-opacity:1;enable-background:accumulate;stop-color:#000000"
         d="m -2787.0061,-204.43489 c -0.8562,4.1e-4 -1.6797,0.10929 -2.4673,0.34873 -1.5751,0.47888 -2.9571,1.49662 -4.0369,3.00426 a 1.1591269,1.1591269 0 0 0 0.2669,1.61731 1.1591269,1.1591269 0 0 0 1.6173,-0.2669 c 0.8351,-1.16592 1.7409,-1.80683 2.8263,-2.13682 1.0854,-0.33 2.3977,-0.33213 3.9726,0.002 a 1.1591269,1.1591269 0 0 0 1.3742,-0.89286 1.1591269,1.1591269 0 0 0 -0.8928,-1.37424 c -0.9157,-0.1945 -1.8041,-0.30245 -2.6603,-0.30186 z"
         id="path73" /><path
         style="baseline-shift:baseline;display:inline;overflow:visible;fill:#d35f8d;fill-opacity:1;stroke:#d35f8d;stroke-width:2.12717;stroke-linecap:round;stroke-linejoin:round;stroke-miterlimit:5;stroke-dasharray:none;stroke-opacity:1;enable-background:accumulate;stop-color:#000000"
         d="m -2755.2731,-204.43489 c -0.8562,-4e-4 -1.7447,0.10737 -2.6603,0.30186 a 1.1591269,1.1591269 0 0 0 -0.8929,1.37424 1.1591269,1.1591269 0 0 0 1.3743,0.89286 c 1.5748,-0.33451 2.8871,-0.33238 3.9725,-0.002 1.0855,0.32999 1.9913,0.9709 2.8264,2.13682 a 1.1591269,1.1591269 0 0 0 1.6173,0.26691 1.1591269,1.1591269 0 0 0 0.2669,-1.61732 c -1.0798,-1.50763 -2.461,-2.52537 -4.0361,-3.00426 -0.7876,-0.23944 -1.6119,-0.34813 -2.4681,-0.34872 z"
         id="path74" /><path
         id="ellipse74"
         style="fill:#d35f8d;fill-opacity:1;stroke:#d35f8d;stroke-width:2.12717;stroke-linecap:round;stroke-linejoin:round;stroke-miterlimit:5;stroke-dasharray:none;stroke-opacity:1"
         d="m -2751.9988,-190.64563 a 3.8637564,4.8296952 0 0 1 -3.8637,4.8297 3.8637564,4.8296952 0 0 1 -3.8638,-4.8297 3.8637564,4.8296952 0 0 1 3.8638,-4.8297 3.8637564,4.8296952 0 0 1 3.8637,4.8297 z" /><path
         style="baseline-shift:baseline;display:inline;overflow:visible;fill:#d35f8d;fill-opacity:1;stroke:#d35f8d;stroke-width:2.12717;stroke-linecap:round;stroke-linejoin:round;stroke-miterlimit:5;stroke-dasharray:none;stroke-opacity:1;enable-background:accumulate;stop-color:#000000"
         d="m -2763.169,-176.37181 a 1.3218114,1.3218114 0 0 0 -0.9128,0.4361 c -2.3742,2.64195 -4.4858,3.97911 -6.5987,4.14416 -2.1128,0.16506 -4.5415,-0.80156 -7.6504,-3.53409 a 1.3218114,1.3218114 0 0 0 -1.866,0.11994 1.3218114,1.3218114 0 0 0 0.1207,1.86516 c 3.3943,2.9833 6.531,4.42454 9.6015,4.18467 3.0705,-0.23986 5.7599,-2.12021 8.359,-5.0124 a 1.3218114,1.3218114 0 0 0 -0.099,-1.86673 1.3218114,1.3218114 0 0 0 -0.954,-0.33681 z"
         id="path76" /><path
         style="baseline-shift:baseline;display:inline;overflow:visible;fill:#d35f8d;fill-opacity:1;stroke:#d35f8d;stroke-width:2.12717;stroke-linecap:round;stroke-linejoin:round;stroke-miterlimit:5;stroke-dasharray:none;stroke-opacity:1;enable-background:accumulate;stop-color:#000000"
         d="m -2771.4351,-186.50226 c -1.7072,-0.0121 -3.2548,0.96872 -4.593,2.51573 a 1.3218114,1.3218114 0 0 0 0.1342,1.86436 1.3218114,1.3218114 0 0 0 1.8652,-0.13425 c 1.0512,-1.21523 1.8922,-1.60705 2.5745,-1.60221 0.6823,0.005 1.5346,0.41306 2.5888,1.6467 a 1.3218114,1.3218114 0 0 0 1.8636,0.14616 1.3218114,1.3218114 0 0 0 0.1461,-1.86356 c -1.3352,-1.5625 -2.8723,-2.56082 -4.5794,-2.57293 z"
         id="path77" /><path
         style="baseline-shift:baseline;display:inline;overflow:visible;fill:#d35f8d;fill-opacity:1;stroke:#d35f8d;stroke-width:2.12717;stroke-linecap:round;stroke-linejoin:round;stroke-miterlimit:5;stroke-dasharray:none;stroke-opacity:1;enable-background:accumulate;stop-color:#000000"
         d="m -2782.5428,-226.03188 c 0.2822,4.01411 2.7532,7.71542 6.9363,9.99381 1.9426,1.05806 4.8498,1.41226 6.9967,0.66885 0.7115,-0.24637 1.3715,-0.5498 1.9756,-0.91272 1.0967,-0.65891 1.7603,-1.81512 2.0963,-3.03524 0.336,-1.22012 0.3607,-2.57428 -0.3496,-3.6882 -0.214,-0.33576 -0.4697,-0.68646 -0.788,-1.10098 -0.3418,-0.44508 -0.9797,-0.52898 -1.425,-0.18747 -0.4451,0.34189 -0.529,0.97972 -0.1875,1.42508 0.3,0.39085 0.5217,0.69955 0.6855,0.95641 0.2487,0.39 0.3318,1.22815 0.1041,2.055 -0.2277,0.82684 -0.7498,1.57194 -1.1836,1.83258 -0.4726,0.28395 -1.0023,0.52928 -1.5935,0.73399 -1.2479,0.43211 -4.1441,0.12854 -5.3587,-0.53302 -3.6751,-2.00169 -5.6491,-5.069 -5.8799,-8.35108 -0.2307,-3.28208 2.2291,-7.49574 5.9603,-10.52529 0.4363,-0.35397 0.6702,-0.0913 0.316,-0.52731 -1.2765,-1.57317 -8.7818,4.41521 -8.305,11.19559 z"
         id="path78"
         sodipodi:nodetypes="sssssssccssssssscs" /></g></g></svg>
